<?xml version="1.0" encoding="UTF-8"?>
<svg id="Calque_1" data-name="Calque 1" xmlns="http://www.w3.org/2000/svg" xmlns:xlink="http://www.w3.org/1999/xlink" viewBox="0 0 120.3 111.69">
  <defs>
    <style>
      .cls-1 {
        fill: url(#Dégradé_sans_nom_5);
      }

      .cls-1, .cls-2, .cls-3, .cls-4 {
        stroke-width: 0px;
      }

      .cls-2 {
        fill: url(#Dégradé_sans_nom_2);
      }

      .cls-3 {
        fill: url(#Dégradé_sans_nom_3);
      }

      .cls-4 {
        fill: url(#Dégradé_sans_nom_99);
      }
    </style>
    <linearGradient id="Dégradé_sans_nom_5" data-name="Dégradé sans nom 5" x1="18.33" y1="62.07" x2="36.01" y2="44.39" gradientUnits="userSpaceOnUse">
      <stop offset="0" stop-color="#009245"/>
      <stop offset="1" stop-color="#fbb03b"/>
    </linearGradient>
    <linearGradient id="Dégradé_sans_nom_99" data-name="Dégradé sans nom 99" x1="30.29" y1="24.58" x2="65.48" y2="59.77" gradientUnits="userSpaceOnUse">
      <stop offset="0" stop-color="#fbb03b"/>
      <stop offset=".11" stop-color="#faab39"/>
      <stop offset=".22" stop-color="#f99e36"/>
      <stop offset=".34" stop-color="#f68930"/>
      <stop offset=".45" stop-color="#f36c28"/>
      <stop offset=".51" stop-color="#f15a24"/>
      <stop offset="1" stop-color="#ed1e79"/>
    </linearGradient>
    <linearGradient id="Dégradé_sans_nom_3" data-name="Dégradé sans nom 3" x1="48.07" y1="34.89" x2="102.63" y2="34.89" gradientUnits="userSpaceOnUse">
      <stop offset="0" stop-color="#ed1e79"/>
      <stop offset=".36" stop-color="#93278f"/>
      <stop offset=".91" stop-color="#4652ef"/>
      <stop offset="1" stop-color="#3a5aff"/>
    </linearGradient>
    <linearGradient id="Dégradé_sans_nom_2" data-name="Dégradé sans nom 2" x1="32.68" y1="69.67" x2="99.34" y2="69.67" gradientUnits="userSpaceOnUse">
      <stop offset="0" stop-color="#3a5aff"/>
      <stop offset=".33" stop-color="#a834ab"/>
      <stop offset=".52" stop-color="#ed1e79"/>
      <stop offset="1" stop-color="#3a5aff"/>
    </linearGradient>
  </defs>
  <path class="cls-1" d="M21.71,41.04c-1.98-.88-2.93-3.14-2.21-5.1.77-2.12,3.25-3.2,5.34-2.32,2.21.93,3.04,3.66,1.98,5.62-.85,1.58-2.79,2.41-4.7,1.94l-1.58,4.31c.21.1.8.4,1.17,1.09.26.48.3.93.3,1.16l3.45.25c.21-1.86,1.58-3.34,3.31-3.65,2.1-.38,4.23,1.07,4.65,3.19.37,1.89-.72,3.76-2.36,4.47-1.54.67-3,.08-3.29-.05l-2.66,4.94c.31.19,1.25.81,1.72,2.03.34.88.28,1.65.22,2.03l4.69.97c.04-.15.33-1.19,1.41-1.7,1.09-.52,2.1-.06,2.23,0l1.73-2.49c-1.92-1.57-2.04-4.44-.43-6.07,1.52-1.54,4.14-1.54,5.69,0,1.33,1.32,1.57,3.49.51,5.07-1.14,1.7-3.49,2.29-5.38,1.26l-1.73,2.49c1.04,1.16,1.03,2.8.18,3.7-.91.96-2.37.65-2.45.64l-1.41,4.16c1.42.77,1.83,2.56,1.03,3.72-.7,1.02-2.2,1.38-3.33.7-.99-.59-1.45-1.83-1.08-2.92.4-1.19,1.68-1.92,2.96-1.64l1.43-4.17c-.21-.1-.73-.39-1.09-1.02-.29-.52-.32-1.02-.32-1.25l-4.73-.99c-.61,1.87-2.35,3.08-4.15,2.98-2.3-.14-4.08-2.4-3.76-4.62.25-1.75,1.75-3.1,3.37-3.37,1.11-.19,2.02.17,2.43.36l2.66-4.94c-.32-.18-.93-.58-1.4-1.31-.57-.87-.64-1.73-.65-2.11l-3.47-.25c-.26,1.34-1.48,2.24-2.73,2.12-1.46-.15-2.53-1.67-2.16-3.11.33-1.27,1.7-2.11,3.08-1.79l1.54-4.32Z"/>
  <path class="cls-4" d="M30.94,30.99c-.66,1.25-2.14,1.78-3.35,1.27-1.36-.57-1.99-2.31-1.29-3.57.6-1.07,2.01-1.51,3.17-1.05,1.13.45,1.81,1.65,1.61,2.89l2.95.95c.09-.2.27-.56.64-.88.36-.32.72-.45.93-.52l-.59-2.98c-1.52.03-2.73-1.16-2.75-2.5-.01-1.11.79-2.18,1.97-2.44,1.22-.27,2.46.44,2.87,1.56.47,1.27-.23,2.77-1.61,3.27l.59,3,1.18.16.78.5,2.4-2.09c-1.37-1.68-1.17-4.17.44-5.59,1.64-1.45,4.21-1.31,5.68.36,1.48,1.67,1.27,4.25-.36,5.68-1.52,1.34-3.89,1.32-5.43-.1l-2.41,2.1c.04.06.82,1.23.24,2.49-.46,1-1.42,1.31-1.58,1.36l.57,3.03c.15,0,1.3-.06,2.1.85.58.66.62,1.43.62,1.65l3.71.39c.33-2.16,2.34-3.68,4.49-3.4,2.19.28,3.75,2.31,3.49,4.47-.25,2.08-2.11,3.65-4.24,3.54l-.32,2.95c.16.03,1.1.22,1.66,1.13.52.83.36,1.68.32,1.85l2.95.95c.38-.84,1.15-1.42,2.04-1.51,1.04-.1,2.07.49,2.54,1.49l2.47-.77c-.51-2.31,1.01-4.57,3.21-4.96,2.07-.37,4.14,1.01,4.61,3.08.43,1.87-.57,3.81-2.26,4.55-1.96.87-4.46-.08-5.44-2.25l-2.46.77c.04.16.23,1.06-.32,1.93-.48.76-1.22,1-1.41,1.05l.61,3.23c2.07-.36,4.09.92,4.62,2.91.57,2.11-.7,4.32-2.76,4.91-2.26.65-4.64-.86-5.08-3.09-.37-1.91.78-3.91,2.75-4.61l-.61-3.26c-.12.01-1.28.09-2.1-.84-.82-.93-.59-2.07-.57-2.18l-2.95-.95c-.48,1.09-1.67,1.7-2.83,1.45-1.2-.26-2.01-1.38-1.96-2.55.07-1.3,1.19-2.38,2.58-2.39l.32-2.95c-.33-.05-1.49-.28-2.4-1.32-1.04-1.18-1.02-2.55-1.01-2.84l-3.67-.35c-.23,1.15-1.22,2-2.37,2.05-1.2.05-2.29-.77-2.56-1.94-.28-1.24.46-2.55,1.74-2.96l-.57-3.04c-.12.01-1.28.09-2.09-.84-.82-.93-.59-2.07-.57-2.18l-2.95-.95Z"/>
  <path class="cls-3" d="M100.17,45.81c-1.27-.01-2.38.97-2.52,2.26h-1.39c-.02-.3-.14-1.61-1.24-2.67-1.18-1.13-2.63-1.13-2.9-1.12l-.28-3.65c2.27-.37,3.92-2.4,3.8-4.69-.12-2.34-2.06-4.21-4.37-4.27-2.4-.06-4.48,1.83-4.63,4.27h-4.17c-.02-.16-.14-1.13-1.01-1.79-.88-.67-1.86-.52-2.02-.49l-1.35-4.37c1.86-.61,3.02-2.45,2.78-4.35-.26-2.03-2.05-3.52-4.02-3.5-2.13.02-3.95,1.79-4.03,4.02l-4.14.19c-.02-.09-.3-1.49-1.55-1.97-1.09-.42-2.44.04-3.16,1.16l-4.93-1.93c.61-1.76.03-3.68-1.36-4.71-1.69-1.25-4.28-.98-5.63.85-1.35,1.83-.84,4.4.85,5.63,1.86,1.35,4.73.76,6-1.46l4.94,1.93-.04,1.57.72,1.13-2.72,3.69c-.11-.07-1.09-.62-2.21-.17-1.06.43-1.4,1.41-1.44,1.55l-5.2-1.18c.23-1.12-.3-2.25-1.28-2.77-1.12-.59-2.5-.2-3.16.73-.91,1.28-.29,3.31,1.17,3.83,1.09.39,2.46-.14,3.13-1.34l5.23,1.18c-.02.16-.1,1.21.69,2.02.65.67,1.66.92,2.6.65l2.08,4.68c-1.1.66-1.55,2.02-1.07,3.14.55,1.31,2.13,1.81,3.29,1.32,1.11-.47,1.42-1.66,1.46-1.81l4.78.48c0,.16.06,1.31,1.01,2.01.94.69,2.33.63,3.18-.18.97-.93,1.01-2.62-.04-3.69l2.7-3.7c.19.11.99.52,1.94.25.96-.26,1.69-1.1,1.89-2.15l4.11-.02c.02.31.13,1.9,1.47,3.12,1.4,1.27,3.07,1.19,3.36,1.17l.27,3.63c-2.19.29-3.75,2.3-3.51,4.45.24,2.12,2.14,3.69,4.25,3.56,1.99-.12,3.63-1.74,3.78-3.78h1.4c.16,1.39,1.4,2.39,2.73,2.26,1.26-.12,2.25-1.22,2.25-2.5,0-1.34-1.11-2.48-2.46-2.5ZM77.47,36.42c.08.88.66,1.44.84,1.61l-2.7,3.7c-.1-.06-1.13-.64-2.28-.13-1.16.51-1.42,1.69-1.44,1.8l-4.78-.49c0-.12-.02-1.28-1.01-2.01-1.02-.75-2.16-.39-2.27-.36l-2.08-4.69c.09-.05,1.17-.69,1.27-1.99.09-1.19-.73-1.95-.83-2.04l2.72-3.69c.86.48,1.89.45,2.68-.07.99-.67,1.09-1.8,1.1-1.94l4.16-.23c.03.22.32,2.14,2.06,3.1,1.21.67,2.39.49,2.75.42l1.36,4.44c-1.02.53-1.62,1.55-1.53,2.56Z"/>
  <path class="cls-2" d="M82.68,52.86c-2.33,0-4.2-1.89-4.18-4.1.02-2.04,1.67-3.81,3.75-3.95,2.19-.15,4.16,1.55,4.31,3.74.14,2.04-1.33,3.91-3.41,4.26l.53,5.45c.15,0,1.21.02,1.94.89.6.71.59,1.52.59,1.72l5.15.7c.4-2.32,2.69-3.82,4.9-3.3,2.21.52,3.54,2.87,2.95,4.99-.52,1.84-2.37,3.11-4.33,2.87-2-.24-3.54-1.97-3.55-4.03l-5.18-.76c-.02.07-.38,1.4-1.69,1.8-1.17.36-2.11-.3-2.22-.38l-3.89,4.33c.06.06.94.97.66,2.23-.27,1.21-1.35,1.68-1.45,1.72l.52,1.47c1.29-.3,2.61.45,2.99,1.68.38,1.21-.25,2.52-1.36,3.01-1.34.6-2.99-.16-3.41-1.54-.34-1.12.2-2.4,1.33-3l-.52-1.47c-.06.01-1.45.31-2.41-.71-.67-.71-.86-1.78-.48-2.71l-4.7-2.66c-.2.29-.88,1.19-2.14,1.58-1.6.49-2.92-.21-3.17-.34l-4.15,6.07c1.42,1.17,1.36,3.82-.83,4.3-2.04.44-3.23-.96-3.21-2.74l-5.66-1.38c-.05.13-.47,1.21-1.62,1.56-.92.28-1.95-.01-2.63-.76l-5.91,4.09c.75,1.41.68,3.09-.2,4.35-1.07,1.53-2.83,1.68-3.08,1.7v6c1.57.33,2.49,1.84,2.15,3.16-.28,1.08-1.37,1.91-2.57,1.83-1.27-.09-2.33-1.16-2.33-2.49,0-1.31,1.03-2.4,2.33-2.49v-6.01c-2.3-.19-4-2.22-3.81-4.39.19-2.11,2.09-3.65,4.03-3.66,1.88,0,3.07,1.43,3.24,1.64l5.89-4.09c-.05-.1-.67-1.38.03-2.55.37-.62.93-.9,1.17-1.01l-1.86-6.02c-1.39.24-2.71-.68-2.96-1.99-.23-1.21.5-2.46,1.72-2.84,1.2-.37,2.48.23,2.99,1.3.57,1.21.03,2.76-1.29,3.39l1.86,6.02c.09-.02,1.4-.25,2.32.74.8.85.67,1.92.65,2.07l5.66,1.38c.05-.12.46-1.2,1.62-1.56.99-.31,1.81.13,1.96.21l4.13-6.04c-1.32-.99-1.97-2.58-1.68-4.08.42-2.14,2.68-3.55,4.63-3.17,2.59.5,4.22,3.06,2.93,5.9l4.7,2.62c.09-.13.66-.95,1.75-1.09.96-.13,1.66.36,1.81.47l3.89-4.33c-.7-.87-.83-2.04-.33-2.93.52-.93,1.49-1.17,1.67-1.21l-.53-5.45Z"/>
</svg>
